#N canvas 93 22 1273 676 10;
#X obj 158 347 writesf~;
#X obj 282 339 osc~;
#X msg 162 286 start;
#X msg 213 286 stop;
#X msg 55 287 open sonido.wav;
#X floatatom 283 309 10 0 0 0 - - -;
#X obj 280 394 *~;
#X obj 255 639 dac~;
#X obj 359 412 hsl 128 15 0 1 0 0 empty empty empty -2 -8 0 10 -262144
-1 -1 0 1;
#X obj 358 463 line~;
#X msg 358 438 \$1 20;
#X obj 295 142 netreceive -u -b;
#X msg 294 116 listen 3000;
#X obj 296 172 oscparse;
#X obj 296 197 list trim;
#X obj 298 227 route chat;
#X obj 398 285 print;
#X obj 360 366 tgl 15 0 empty empty empty 17 7 0 10 -262144 -1 -1 0
1;
#X obj 821 199 phasor~;
#X obj 824 279 clip~ 0 1;
#X msg 872 178 0;
#X obj 823 327 -~ 0.5;
#X obj 825 350 *~;
#X obj 899 316 hsl 128 15 0 1 0 0 empty empty empty -2 -8 0 10 -262144
-1 -1 0 1;
#X obj 904 178 *~ -1;
#X msg 949 179 0;
#X obj 903 208 phasor~;
#X obj 824 258 *~ 2;
#X obj 820 226 -~ 0.5;
#X obj 902 229 -~ 0.5;
#X obj 824 303 +~;
#X obj 902 256 *~ 2;
#X obj 904 278 clip~ 0 1;
#X obj 543 176 osc~;
#X obj 554 283 *~;
#X msg 558 196 0.8;
#X floatatom 828 140 5 0 0 0 - - -;
#X msg 896 335 \$1 20;
#X obj 897 359 line~;
#X floatatom 542 149 5 0 0 0 - - -;
#X obj 613 154 hsl 128 15 0 1 0 0 empty empty empty -2 -8 0 10 -262144
-1 -1 0 1;
#X msg 610 174 \$1 20;
#X obj 609 201 line~;
#X floatatom 1083 172 5 0 0 0 - - -;
#X obj 1086 248 phasor~;
#X obj 1089 280 *~ 0.5;
#X obj 1090 312 *~ 2;
#X obj 1131 207 *~ 0.5;
#X obj 1132 173 phasor~;
#X obj 1133 238 *~ 2;
#X obj 1132 141 *~ -1;
#X msg 1179 141 0.5;
#X msg 1125 215 0;
#X obj 1093 345 +~;
#X obj 1094 402 *~;
#X obj 1137 264 hsl 128 15 0 1 0 0 empty empty empty -2 -8 0 10 -262144
-1 -1 0 1;
#X floatatom 1134 282 5 0 0 0 - - -;
#X text 377 362 Botón pata apagar y prender el volumen general;
#X text 555 22 SINTETIZADOR CON VALORES DE SUPER COLLIDER;
#X obj 245 581 freeverb~;
#X obj 316 520 hsl 70 15 0 1 0 0 empty empty empty -2 -8 0 10 -262144
-1 -1 0 1;
#X obj 421 524 hsl 70 15 0 1 0 0 empty empty empty -2 -8 0 10 -262144
-1 -1 0 1;
#X obj 517 523 hsl 70 15 0 1 0 0 empty empty empty -2 -8 0 10 -262144
-1 -1 0 1;
#X msg 314 545 dry \$1;
#X msg 420 546 wet \$1;
#X msg 517 545 roomsize \$1;
#X text 328 582 Reverberación y sus controles uwu;
#X text 508 414 Control de volumen general;
#X text 650 84 Todos estos \, modifican el sonido conforme a los valores
que recibe de SuperCollider \, cada slider controla cuanto influye
en la salida;
#X text 41 250 Para grabar el sonido primero pulsar el mensaje open
sonido. wav \, después start y cuando se termine \, stop \, buscarlo
en la carpeta de este documento.;
#X text 208 51 Esta parte es para comunicarse con Super Collider Pulsar
listen 3000 y con eso quedarà en espera para recibir los datos de
SuperCollider uwu;
#X connect 1 0 6 0;
#X connect 2 0 0 0;
#X connect 3 0 0 0;
#X connect 4 0 0 0;
#X connect 5 0 1 0;
#X connect 6 0 0 0;
#X connect 6 0 59 0;
#X connect 8 0 10 0;
#X connect 9 0 6 1;
#X connect 10 0 9 0;
#X connect 11 0 13 0;
#X connect 12 0 11 0;
#X connect 13 0 14 0;
#X connect 14 0 15 0;
#X connect 15 0 5 0;
#X connect 15 0 16 0;
#X connect 15 0 39 0;
#X connect 15 0 36 0;
#X connect 15 0 43 0;
#X connect 17 0 8 0;
#X connect 18 0 28 0;
#X connect 19 0 30 0;
#X connect 20 0 18 1;
#X connect 21 0 22 0;
#X connect 22 0 6 0;
#X connect 23 0 37 0;
#X connect 24 0 26 0;
#X connect 25 0 26 1;
#X connect 26 0 29 0;
#X connect 27 0 19 0;
#X connect 28 0 27 0;
#X connect 29 0 31 0;
#X connect 30 0 21 0;
#X connect 31 0 32 0;
#X connect 32 0 30 1;
#X connect 33 0 34 0;
#X connect 34 0 6 0;
#X connect 35 0 34 1;
#X connect 36 0 18 0;
#X connect 36 0 24 0;
#X connect 36 0 20 0;
#X connect 36 0 25 0;
#X connect 37 0 38 0;
#X connect 38 0 22 1;
#X connect 39 0 33 0;
#X connect 40 0 41 0;
#X connect 41 0 42 0;
#X connect 42 0 34 1;
#X connect 43 0 44 0;
#X connect 43 0 50 0;
#X connect 43 0 52 0;
#X connect 43 0 51 0;
#X connect 44 0 45 0;
#X connect 45 0 46 0;
#X connect 46 0 53 0;
#X connect 47 0 49 0;
#X connect 48 0 47 0;
#X connect 49 0 53 1;
#X connect 50 0 48 0;
#X connect 51 0 48 1;
#X connect 52 0 44 1;
#X connect 53 0 54 0;
#X connect 54 0 6 0;
#X connect 55 0 56 0;
#X connect 56 0 54 1;
#X connect 59 0 7 0;
#X connect 59 0 7 1;
#X connect 60 0 63 0;
#X connect 61 0 64 0;
#X connect 62 0 65 0;
#X connect 63 0 59 0;
#X connect 64 0 59 0;
#X connect 65 0 59 0;
